<svg xmlns="http://www.w3.org/2000/svg" xmlns:xlink="http://www.w3.org/1999/xlink" version="1.1" id="Layer_1" x="0px" y="0px" viewBox="0 0 748.53 171.94" style="enable-background:new 0 0 748.53 171.94;" xml:space="preserve">
<style type="text/css">
	.st0{fill:#FFFFFF;}
	.st1{fill:#246076;}
</style>
<g>
	<g>
		<g>
			<path class="st1" d="M601.44,96.92c1.14,3.76,4.09,6.16,9.6,6.16c4.28,0,6.94-1.28,6.94-4.28c0-4.28-5.89-4.45-13.3-6.67     c-8.08-2.39-18.43-6.5-18.43-19.24c0-11.63,9.03-18.04,23.94-18.04c12.64,0,22.42,4.53,25.47,15.99l-16.63,4.02     c-1.24-4.28-4.09-6.07-8.93-6.07c-4.37,0-6.08,1.45-6.08,3.93c0,4.02,4.94,4.79,13.4,7.01c8.84,2.31,18.24,6.33,18.24,18.9     c0,12.32-8.93,18.47-24.33,18.47c-11.59,0-23.28-3.68-26.51-16.16L601.44,96.92z" fill="#246076"/>
			<path class="st1" d="M676.59,70.05v47.05H658.6V70.05h-17.89V54.84h53.76v15.21H676.59z" fill="#246076"/>
			<path class="st1" d="M508.75,60.97c-4.27-4.09-9.55-6.14-15.83-6.14h-24.2v62.26h15.92V70.05h8.27c1.78,0,3.27,0.61,4.49,1.82     c1.21,1.21,1.82,2.8,1.82,4.76s-0.61,3.56-1.82,4.8c-1.22,1.24-2.71,1.87-4.49,1.87h-0.98v15.12h0.98     c6.28,0,11.56-2.05,15.83-6.14c4.27-4.09,6.4-9.31,6.4-15.65C515.16,70.28,513.02,65.07,508.75,60.97z" fill="#246076"/>
			<polygon class="st1" points="707.52,54.84 687.51,117.1 704.89,117.1 707.6,108.12 707.6,108.12 717.91,73.61 718.02,73.25      724.39,94.42 716.76,94.42 713.06,108.12 728.98,108.12 731.99,117.1 748.53,117.1 727.75,54.84    " fill="#246076"/>
			<path class="st1" d="M573.53,108.1c-6.06,6-13.46,9-22.22,9c-8.76,0-16.16-3-22.22-9c-6.06-6-9.08-13.38-9.08-22.13     c0-8.76,3.03-16.13,9.08-22.13c6.06-6,13.46-9,22.22-9c8.76,0,16.16,3,22.22,9c6.06,6,9.08,13.38,9.08,22.13     C582.61,94.73,579.58,102.1,573.53,108.1z M539.79,97.61c3.07,3.04,6.91,4.56,11.52,4.56s8.44-1.52,11.51-4.56     c3.07-3.04,4.61-6.92,4.61-11.64c0-4.72-1.54-8.6-4.61-11.64c-3.07-3.04-6.91-4.56-11.51-4.56s-8.44,1.52-11.52,4.56     c-3.07,3.04-4.61,6.92-4.61,11.64C535.19,90.69,536.72,94.57,539.79,97.61z" fill="#246076"/>
		</g>
		<g>
			<path class="st1" d="M244.26,92.24c-1.17-2.5-2.96-4.55-5.38-6.14c-2.41-1.59-4.64-2.76-6.7-3.5c-2.05-0.74-4.71-1.7-7.96-2.87     c-4.61-1.37-7.72-2.58-9.31-3.63c-1.59-1.05-2.39-2.32-2.39-3.83c0-1.31,0.54-2.39,1.61-3.24c1.07-0.85,2.65-1.28,4.73-1.28     c4.95,0,8.49,2.54,10.64,7.62l14.64-8.59c-2.34-5.08-5.73-8.95-10.15-11.62c-4.43-2.67-9.5-4-15.23-4     c-6.77,0-12.42,1.95-16.94,5.86c-4.52,3.91-6.79,9.01-6.79,15.33c0,5.86,1.82,10.43,5.47,13.72c3.65,3.29,8.59,5.84,14.84,7.66     c4.41,1.28,7.27,2.18,8.56,2.72c3.08,1.23,4.62,2.84,4.62,4.84c0,3.03-2.67,4.55-8.01,4.55c-6.44,0-10.93-3.03-13.47-9.08     l-14.94,8.69c1.89,5.21,5.21,9.34,9.96,12.4c4.75,3.06,10.74,4.59,17.96,4.59c7.81,0,14.09-1.89,18.84-5.66     c4.75-3.77,7.13-9.01,7.13-15.72C246.02,97.68,245.43,94.74,244.26,92.24z" fill="#246076"/>
			<polygon class="st1" points="267.79,52.63 246.02,120.97 264.93,120.97 267.88,111.11 267.88,111.11 279.09,73.24 279.21,72.84      286.14,96.07 277.84,96.07 273.81,111.11 291.14,111.11 294.41,120.97 312.4,120.97 289.8,52.63    " fill="#246076"/>
			<polygon class="st1" points="317.38,120.97 334.86,120.97 334.86,97.54 351.58,97.54 351.58,80.65 334.86,80.65 334.86,69.52      359.36,69.52 359.36,52.63 317.38,52.63    " fill="#246076"/>
			<path class="st1" d="M375.37,49.51c-2.54,0-4.73,0.91-6.59,2.73c-1.86,1.82-2.78,4-2.78,6.54c0,2.54,0.93,4.74,2.78,6.59     c1.86,1.86,4.05,2.78,6.59,2.78c2.54,0,4.74-0.93,6.59-2.78c1.85-1.85,2.78-4.05,2.78-6.59c0-2.54-0.93-4.72-2.78-6.54     C380.11,50.42,377.91,49.51,375.37,49.51z" fill="#246076"/>
			<rect x="367.27" y="72.16" class="st1" width="16.21" height="48.81" fill="#246076"/>
			<path class="st1" d="M433.85,95.68c3.58-2.02,6.41-4.74,8.49-8.15c2.08-3.42,3.12-7.18,3.12-11.28c0-6.83-2.36-12.48-7.08-16.94     c-4.72-4.46-10.56-6.69-17.52-6.69h-27.34v68.34H411V69.15h0v-0.42h9.67c2.15,0,3.91,0.72,5.27,2.15     c1.37,1.43,2.05,3.29,2.05,5.57c0,2.28-0.68,4.13-2.05,5.57c-1.37,1.43-6.56,2.12-8.71,2.05h-0.03v0v14.84h0.05l11.91,22.06     h18.75L433.85,95.68z" fill="#246076"/>
		</g>
	</g>
	<g>
		<g>
			<defs fill="#246076">
				<path id="SVGID_00000172415109389976469620000002552861869632834706_" d="M49.1,36.87L85.97,0l36.87,36.87H110.9L85.97,11.94      L61.04,36.87H49.1z M132.83,125.08l39.11-39.11l-39.11-39.11V58.8L160,85.97l-27.17,27.17V125.08z M112.2,133.77L85.97,160      l-26.23-26.23H47.8l38.17,38.17l38.17-38.17H112.2z M35.93,109.96L11.94,85.97l23.99-23.99V50.04L0,85.97l35.93,35.93V109.96z       M0,85.97" fill="#246076"/>
			</defs>
			<use xlink:href="#SVGID_00000172415109389976469620000002552861869632834706_" style="overflow:visible;fill:#246076;"/>
			<clipPath id="SVGID_00000129205976885692687330000002409976947864762299_" fill="#246076">
				<use xlink:href="#SVGID_00000172415109389976469620000002552861869632834706_" style="overflow:visible;" fill="#246076"/>
			</clipPath>
		</g>
		<polygon class="st1" points="85.9,88.62 130.24,44.27 125.33,39.36 85.9,78.8 46.53,39.44 41.62,44.35   " fill="#246076"/>
	</g>
</g>
</svg>